<svg width="17" height="20" viewBox="0 0 17 20" fill="none" xmlns="http://www.w3.org/2000/svg">
<path d="M16 8.33317H1M11.8333 1.6665V4.99984M5.16667 1.6665V4.99984M5 18.3332H12C13.4001 18.3332 14.1002 18.3332 14.635 18.0607C15.1054 17.821 15.4878 17.4386 15.7275 16.9681C16 16.4334 16 15.7333 16 14.3332V7.33317C16 5.93304 16 5.23297 15.7275 4.69819C15.4878 4.22779 15.1054 3.84534 14.635 3.60565C14.1002 3.33317 13.4001 3.33317 12 3.33317H5C3.59987 3.33317 2.8998 3.33317 2.36502 3.60565C1.89462 3.84534 1.51217 4.22779 1.27248 4.69819C1 5.23297 1 5.93304 1 7.33317V14.3332C1 15.7333 1 16.4334 1.27248 16.9681C1.51217 17.4386 1.89462 17.821 2.36502 18.0607C2.8998 18.3332 3.59987 18.3332 5 18.3332Z" stroke="black" stroke-width="1.66667" stroke-linecap="round" stroke-linejoin="round"/>
</svg>
