<svg width="26" height="26" viewBox="0 0 26 26" fill="none" xmlns="http://www.w3.org/2000/svg">
<path d="M7.66667 14.3333V19.6667M18.3333 11.6667V19.6667M13 6.33333V19.6667M7.4 25H18.6C20.8402 25 21.9603 25 22.816 24.564C23.5686 24.1805 24.1805 23.5686 24.564 22.816C25 21.9603 25 20.8402 25 18.6V7.4C25 5.15979 25 4.03969 24.564 3.18404C24.1805 2.43139 23.5686 1.81947 22.816 1.43597C21.9603 1 20.8402 1 18.6 1H7.4C5.15979 1 4.03969 1 3.18404 1.43597C2.43139 1.81947 1.81947 2.43139 1.43597 3.18404C1 4.03969 1 5.15979 1 7.4V18.6C1 20.8402 1 21.9603 1.43597 22.816C1.81947 23.5686 2.43139 24.1805 3.18404 24.564C4.03969 25 5.15979 25 7.4 25Z" stroke="#E2A6FF" stroke-width="2" stroke-linecap="round" stroke-linejoin="round"/>
</svg>
