<svg width="23" height="24" viewBox="0 0 23 24" fill="none" xmlns="http://www.w3.org/2000/svg">
<path d="M8.63259 20.1082L9.27548 21.5541C9.4666 21.9845 9.77849 22.3502 10.1733 22.6069C10.5682 22.8635 11.029 23.0001 11.4999 23C11.9709 23.0001 12.4317 22.8635 12.8265 22.6069C13.2214 22.3502 13.5333 21.9845 13.7244 21.5541L14.3673 20.1082C14.5961 19.5952 14.9811 19.1674 15.4673 18.886C15.9565 18.6038 16.5225 18.4836 17.0843 18.5426L18.6573 18.71C19.1255 18.7595 19.5981 18.6722 20.0176 18.4585C20.4372 18.2448 20.7857 17.914 21.021 17.5061C21.2566 17.0985 21.3689 16.6313 21.3441 16.1612C21.3194 15.691 21.1588 15.2382 20.8817 14.8576L19.9504 13.5779C19.6187 13.1188 19.4416 12.5663 19.4444 12C19.4443 11.4352 19.6231 10.885 19.9553 10.4282L20.8866 9.14856C21.1637 8.76793 21.3243 8.31508 21.349 7.84494C21.3738 7.3748 21.2615 6.9076 21.0259 6.5C20.7906 6.09216 20.4421 5.76134 20.0225 5.54765C19.6029 5.33396 19.1304 5.24658 18.6622 5.29611L17.0892 5.46356C16.5274 5.52255 15.9614 5.40233 15.4722 5.12011C14.985 4.83708 14.5999 4.40709 14.3722 3.89178L13.7244 2.44589C13.5333 2.01549 13.2214 1.64979 12.8265 1.39314C12.4317 1.13649 11.9709 0.999923 11.4999 1C11.029 0.999923 10.5682 1.13649 10.1733 1.39314C9.77849 1.64979 9.4666 2.01549 9.27548 2.44589L8.63259 3.89178C8.40482 4.40709 8.01975 4.83708 7.53259 5.12011C7.04333 5.40233 6.47733 5.52255 5.91559 5.46356L4.3377 5.29611C3.86947 5.24658 3.39692 5.33396 2.97735 5.54765C2.55778 5.76134 2.20922 6.09216 1.97393 6.5C1.73833 6.9076 1.62609 7.3748 1.65082 7.84494C1.67555 8.31508 1.8362 8.76793 2.11326 9.14856L3.04459 10.4282C3.37673 10.885 3.55559 11.4352 3.55548 12C3.55559 12.5648 3.37673 13.115 3.04459 13.5718L2.11326 14.8514C1.8362 15.2321 1.67555 15.6849 1.65082 16.1551C1.62609 16.6252 1.73833 17.0924 1.97393 17.5C2.20945 17.9076 2.55806 18.2383 2.97756 18.4519C3.39707 18.6656 3.8695 18.7531 4.3377 18.7039L5.91071 18.5364C6.47244 18.4775 7.03844 18.5977 7.52771 18.8799C8.01669 19.1621 8.40354 19.5922 8.63259 20.1082Z" stroke="#C7E941" stroke-width="2" stroke-linecap="round" stroke-linejoin="round"/>
<path d="M11.498 15.3C13.3205 15.3 14.798 13.8225 14.798 12C14.798 10.1775 13.3205 8.7 11.498 8.7C9.67542 8.7 8.19796 10.1775 8.19796 12C8.19796 13.8225 9.67542 15.3 11.498 15.3Z" stroke="#C7E941" stroke-width="2" stroke-linecap="round" stroke-linejoin="round"/>
</svg>
